<svg width="40" height="40" viewBox="0 0 22 22" fill="none" xmlns="http://www.w3.org/2000/svg">
<path d="M10.948 13.829L9.53399 15.243L5.28999 11L9.53299 6.75696L10.947 8.17196L9.11999 9.99996H16.657V12H9.11999L10.948 13.829Z" fill="white"/>
<path fill-rule="evenodd" clip-rule="evenodd" d="M3.222 18.778C-1.074 14.482 -1.074 7.518 3.222 3.222C7.518 -1.074 14.482 -1.074 18.778 3.222C23.074 7.518 23.074 14.482 18.778 18.778C14.482 23.074 7.518 23.074 3.222 18.778ZM4.636 17.364C2.94816 15.6762 1.99994 13.387 1.99994 11C1.99994 8.61304 2.94816 6.32384 4.636 4.636C6.32384 2.94816 8.61304 1.99994 11 1.99994C13.387 1.99994 15.6762 2.94816 17.364 4.636C19.0518 6.32384 20.0001 8.61304 20.0001 11C20.0001 13.387 19.0518 15.6762 17.364 17.364C15.6762 19.0518 13.387 20.0001 11 20.0001C8.61304 20.0001 6.32384 19.0518 4.636 17.364Z" fill="white"/>
</svg>
